<?xml version="1.0" encoding="UTF-8" standalone="no"?>
<!-- Generator: Adobe Illustrator 16.0.0, SVG Export Plug-In . SVG Version: 6.00 Build 0)  -->

<svg
   fill="#f2f2f2"
   version="1.1"
   id="Capa_1"
   x="0px"
   y="0px"
   width="48"
   height="48"
   viewBox="0 0 48 48"
   xml:space="preserve"
   sodipodi:docname="heart.svg"
   inkscape:version="1.2.1 (9c6d41e, 2022-07-14)"
   xmlns:inkscape="http://www.inkscape.org/namespaces/inkscape"
   xmlns:sodipodi="http://sodipodi.sourceforge.net/DTD/sodipodi-0.dtd"
   xmlns="http://www.w3.org/2000/svg"
   xmlns:svg="http://www.w3.org/2000/svg"><defs
   id="defs39" /><sodipodi:namedview
   id="namedview37"
   pagecolor="#ffffff"
   bordercolor="#cccccc"
   borderopacity="1"
   inkscape:showpageshadow="0"
   inkscape:pageopacity="1"
   inkscape:pagecheckerboard="0"
   inkscape:deskcolor="#d1d1d1"
   showgrid="false"
   inkscape:zoom="5.1592593"
   inkscape:cx="22.677674"
   inkscape:cy="22.968413"
   inkscape:window-width="1440"
   inkscape:window-height="815"
   inkscape:window-x="0"
   inkscape:window-y="25"
   inkscape:window-maximized="1"
   inkscape:current-layer="Capa_1" />
<g
   id="g4"
   transform="matrix(0.65583805,0,0,0.68271932,9,8.385185)">
	<path
   d="m 34.199,3.83 c -3.944,0 -7.428,1.98 -9.51,4.997 0,0 -0.703,1.052 -1.818,1.052 -1.114,0 -1.817,-1.052 -1.817,-1.052 C 18.971,5.81 15.489,3.83 11.544,3.83 5.168,3.83 0,8.998 0,15.376 c 0,1.506 0.296,2.939 0.82,4.258 3.234,10.042 17.698,21.848 22.051,22.279 4.354,-0.431 18.816,-12.237 22.052,-22.279 0.524,-1.318 0.82,-2.752 0.82,-4.258 C 45.743,8.998 40.575,3.83 34.199,3.83 Z"
   id="path2" />
</g>
<g
   id="g6"
   transform="translate(0.6654703)">
</g>
<g
   id="g8"
   transform="translate(0.6654703)">
</g>
<g
   id="g10"
   transform="translate(0.6654703)">
</g>
<g
   id="g12"
   transform="translate(0.6654703)">
</g>
<g
   id="g14"
   transform="translate(0.6654703)">
</g>
<g
   id="g16"
   transform="translate(0.6654703)">
</g>
<g
   id="g18"
   transform="translate(0.6654703)">
</g>
<g
   id="g20"
   transform="translate(0.6654703)">
</g>
<g
   id="g22"
   transform="translate(0.6654703)">
</g>
<g
   id="g24"
   transform="translate(0.6654703)">
</g>
<g
   id="g26"
   transform="translate(0.6654703)">
</g>
<g
   id="g28"
   transform="translate(0.6654703)">
</g>
<g
   id="g30"
   transform="translate(0.6654703)">
</g>
<g
   id="g32"
   transform="translate(0.6654703)">
</g>
<g
   id="g34"
   transform="translate(0.6654703)">
</g>
</svg>
